# xmcd CD database file generated by OrangeCD 6.2
#
# Track frame offsets:
#	182
#	15145
#	30610
#	42190
#	52625
#	62982
#	78560
#	94427
#	108690
#	126672
#	136712
#
# Disc length: 1947 seconds
#
# Revision: 1
# Processed by: cddbd v1.5.2PL0 Copyright (c) Steve Scherf et al.
# Submitted via: OrangeCD 6.2
#
DISCID=8d07990b
DTITLE=Various Artist - Christmas Country Classics Volume 1
DYEAR=1991
DGENRE=Country
TTITLE0=Hank Williams, Jr. - Little Drummer Boy
TTITLE1=The Judds - Beautiful Star Of Bethlahem
TTITLE2=Merle Haggard - Winter Wonderland
TTITLE3=Marie Osmond - Let It Snow
TTITLE4=Andy Williams - My Snow Vow
TTITLE5=Don Mclan - Pretty Paper
TTITLE6=Jann Browne (With John Jorgenson Of Desert Rose Band) - What Child Is T
TTITLE6=his
TTITLE7=Sawyer Brown - Blue Christmas
TTITLE8=Wayne Newton - Cowboy's Christmas
TTITLE9=Bobby Helms - Jingle Bell Rock
TTITLE10=Brenda Lee - Rockin' Around The Christmas Tree
EXTD=
EXTT0=
EXTT1=
EXTT2=
EXTT3=
EXTT4=
EXTT5=
EXTT6=
EXTT7=
EXTT8=
EXTT9=
EXTT10=
PLAYORDER=
